<?xml version="1.0" standalone="no"?>
<!DOCTYPE svg PUBLIC "-//W3C//DTD SVG 20010904//EN"
 "http://www.w3.org/TR/2001/REC-SVG-20010904/DTD/svg10.dtd">
<svg version="1.0" xmlns="http://www.w3.org/2000/svg"
 width="500.000000pt" height="500.000000pt" viewBox="0 0 500.000000 500.000000"
 preserveAspectRatio="xMidYMid meet">

<g transform="translate(0.000000,500.000000) scale(0.100000,-0.100000)"
fill="#000000" stroke="none">
<path d="M1230 2701 l0 -281 60 0 60 0 0 80 0 80 78 0 c148 0 232 71 232 196
0 64 -13 100 -48 137 -47 50 -84 60 -239 65 l-143 4 0 -281z m279 145 c29 -26
36 -77 17 -114 -18 -35 -62 -52 -133 -52 l-43 0 0 96 0 96 69 -4 c50 -2 75 -9
90 -22z"/>
<path d="M1820 2700 l0 -280 65 0 65 0 0 280 0 280 -65 0 -65 0 0 -280z"/>
<path d="M2150 2700 l0 -280 60 0 60 0 2 172 3 172 124 -172 123 -172 54 0 54
0 0 280 0 280 -65 0 -65 0 -2 -167 -3 -167 -120 167 -120 166 -52 1 -53 0 0
-280z"/>
<path d="M2780 2905 l0 -65 500 0 500 0 0 65 0 65 -500 0 -500 0 0 -65z"/>
<path d="M2780 2320 l0 -280 60 0 60 0 0 280 0 280 -60 0 -60 0 0 -280z"/>
<path d="M3060 2540 l0 -60 90 0 90 0 0 -220 0 -220 60 0 60 0 0 220 0 220 90
0 90 0 0 60 0 60 -240 0 -240 0 0 -60z"/>
<path d="M3690 2415 l0 -185 59 0 c73 0 71 -7 71 208 l0 162 -65 0 -65 0 0
-185z"/>
<path d="M1270 2120 l0 -70 675 0 675 0 0 70 0 70 -675 0 -675 0 0 -70z"/>
<path d="M3718 2164 c-75 -40 -21 -156 60 -128 60 21 68 100 12 129 -35 18
-38 18 -72 -1z"/>
</g>
</svg>
