<?xml version="1.0" standalone="no"?>
<!DOCTYPE svg PUBLIC "-//W3C//DTD SVG 20010904//EN"
 "http://www.w3.org/TR/2001/REC-SVG-20010904/DTD/svg10.dtd">
<svg version="1.0" xmlns="http://www.w3.org/2000/svg"
 width="500.000000pt" height="500.000000pt" viewBox="0 0 500.000000 500.000000"
 preserveAspectRatio="xMidYMid meet">

<g transform="translate(0.000000,500.000000) scale(0.100000,-0.100000)"
fill="#000000" stroke="none">
<path d="M1220 2701 l0 -281 65 0 64 0 3 78 3 77 90 5 c71 4 98 10 127 28 126
78 122 270 -7 344 -36 21 -55 23 -192 26 l-153 4 0 -281z m264 155 c61 -26 70
-111 14 -150 -15 -11 -44 -16 -85 -16 l-63 0 0 90 0 90 50 0 c28 0 66 -6 84
-14z"/>
<path d="M1820 2700 l0 -280 65 0 65 0 0 280 0 280 -65 0 -65 0 0 -280z"/>
<path d="M2150 2700 l0 -280 60 0 60 0 0 165 c0 91 3 165 8 165 4 0 59 -74
122 -163 l116 -162 57 -3 57 -3 0 281 0 280 -65 0 -65 0 -2 -166 -3 -166 -119
166 -120 166 -53 0 -53 0 0 -280z"/>
<path d="M2780 2905 l0 -65 540 0 540 0 0 65 0 65 -540 0 -540 0 0 -65z"/>
<path d="M2770 2330 l0 -280 65 0 65 0 0 280 0 280 -65 0 -65 0 0 -280z"/>
<path d="M3050 2550 l0 -60 90 0 90 0 0 -220 0 -220 65 0 65 0 0 220 0 220 85
0 85 0 0 60 0 60 -240 0 -240 0 0 -60z"/>
<path d="M3623 2566 c-39 -34 -39 -98 -1 -131 15 -13 32 -25 38 -27 7 -2 14
-59 18 -158 l7 -155 7 155 c5 97 11 156 18 158 29 10 61 50 67 84 5 32 1 41
-25 68 -39 38 -88 41 -129 6z m38 -2 c-13 -9 -29 -31 -37 -48 -13 -29 -13 -30
-13 -6 -1 30 7 43 34 58 31 17 43 14 16 -4z"/>
<path d="M1130 2120 l0 -70 745 0 745 0 0 70 0 70 -745 0 -745 0 0 -70z"/>
</g>
</svg>
